<svg xmlns="http://www.w3.org/2000/svg" width="512" height="512" viewBox="0 0 511 511.998" style="enable-background:new 0 0 512 512" xml:space="preserve"><path fill="#98db7c" d="M442.98 425.969c-1.082-10.465-32.878-15.946-57.167-18.614-12.243 18.45-33.825 29.938-70.004 36.118 23.636 17.632 33.097 45.218 42.601 46.132 11.402 1.098 11.274-12.433 17.856-17.554 6.582-5.117 27.46 1.867 32.183-2.192 7.34-6.304 0-14.996 7.68-24.136 7.68-9.145 28.336-5.387 26.851-19.754zM65.926 407.355c-24.29 2.668-56.09 8.149-57.168 18.614-1.485 14.37 19.172 10.61 26.851 19.754 7.68 9.14.344 17.832 7.68 24.136 4.727 4.059 25.602-2.925 32.184 2.192 6.582 5.12 6.453 18.652 17.855 17.554 9.504-.914 18.965-28.5 42.602-46.132-36.18-6.18-57.762-17.668-70.004-36.118zm0 0" data-original="#98db7c"/><path fill="#aee295" d="M421.758 210.559c22.195-72.653-41.828-193.825-97.785-201.704-35.543-5.003-54.16 23.582-54.16 23.582h-87.887s-18.617-28.585-54.16-23.582C71.809 16.735 7.786 137.906 29.98 210.56c8.829 28.894 27.243 49.648 49.391 64.562h-.016c-13.19 28.738-30.328 73.43-24.921 102.125 10.015 53.145 50.734 71.996 171.437 71.996 120.7 0 161.418-18.851 171.434-71.996 5.406-28.695-11.73-73.387-24.922-102.125h-.016c22.149-14.918 40.563-35.672 49.39-64.562zm0 0" data-original="#aee295"/><path fill="#82d361" d="M402.754 409.586a374.641 374.641 0 0 0-16.942-2.23c-12.242 18.449-33.824 29.937-70.003 36.117 9.418 7.027 16.582 15.632 22.402 23.504 38.43-10.004 56.914-28.188 64.543-57.391zm-289.227 57.391c5.82-7.872 12.985-16.477 22.403-23.504-36.18-6.18-57.762-17.668-70.004-36.118-5.414.594-11.2 1.333-16.938 2.23 7.625 29.204 26.11 47.388 64.54 57.392zm0 0" data-original="#82d361"/><path fill="#98db7c" d="M225.871 422.242c-120.344 0-161.176-18.742-171.344-71.523-1.355 9.605-1.574 18.668-.093 26.527 10.015 53.145 50.734 71.996 171.437 71.996 120.7 0 161.418-18.851 171.434-71.996 1.48-7.86 1.261-16.922-.094-26.527-10.168 52.781-51 71.523-171.34 71.523zm0 0" data-original="#98db7c"/><path fill="#aee295" d="M132.805 369.805s5.816 46.172 32.152 96.793c0 0-30.102 19.836-27.023 27.363 3.078 7.523 18.812-1.371 24.629 0 5.812 1.367 8.273 9.969 13.8 9.766 5.532-.207 14.496-8.325 17.914-8.325 3.414 0 17.121 8.555 20.485 6.727 4.867-2.645-4.301-25.117-13.215-35.234 0 0 8.074-81.504 8.074-82.106m109.313-14.984s-5.813 46.172-32.149 96.793c0 0 30.098 19.836 27.02 27.363-3.078 7.523-18.813-1.371-24.63 0-5.812 1.367-8.273 9.969-13.8 9.766-5.531-.207-14.496-8.325-17.914-8.325-3.414 0-17.121 8.555-20.484 6.727-4.868-2.645 4.3-25.117 13.214-35.234 0 0-8.074-81.504-8.074-82.106" data-original="#aee295"/><path d="M451.113 425.71c-1.222-11.839-17.195-19.19-52.87-24.015 3.07-6.742 5.378-14.257 6.964-22.687 2.098-11.13 1.316-25.11-2.316-41.547a7.523 7.523 0 0 0-8.97-5.723 7.525 7.525 0 0 0-5.722 8.969c3.196 14.445 3.942 26.395 2.223 35.516-5.871 31.16-22.043 52.562-81.856 61.386 14.207-36.68 17.918-65.007 18.11-66.52a7.525 7.525 0 0 0-6.524-8.402c-4.113-.523-7.886 2.399-8.406 6.524-.055.45-5.957 45.543-31.453 94.55a7.514 7.514 0 0 0 2.535 9.75c7.867 5.188 15.567 11.321 20.082 15.794-.844-.203-1.64-.407-2.285-.575-4.645-1.183-9.027-2.308-12.98-1.378-5.094 1.199-8.29 4.82-10.622 7.464-.539.61-1.277 1.45-1.816 1.961-1.707-.609-4.793-2.515-6.562-3.605-4.149-2.555-7.422-4.57-11.09-4.57-2.89 0-5.758 1.25-11 3.644-.559.254-1.23.563-1.953.887 2.14-6.227 6.441-15.102 11.308-20.625a7.536 7.536 0 0 0 1.84-5.719c-2.172-21.926-7.824-79.086-8.078-82.07a7.522 7.522 0 0 0-7.508-7.063 7.524 7.524 0 0 0-7.523 7.524c0 .441 0 .867 5.558 57.023a1002.13 1002.13 0 0 1-28.66 0c5.555-56.152 5.555-56.582 5.555-57.023a7.524 7.524 0 0 0-7.524-7.524c-3.996 0-7.265 3.121-7.508 7.063-.25 2.988-5.902 60.144-8.078 82.07a7.524 7.524 0 0 0 1.844 5.719c4.867 5.523 9.164 14.398 11.305 20.625-.719-.324-1.39-.633-1.95-.887-5.242-2.394-8.113-3.644-11.003-3.644-3.668 0-6.942 2.015-11.086 4.57-1.785 1.101-4.91 3.027-6.551 3.617-.543-.512-1.29-1.355-1.832-1.973-2.332-2.644-5.527-6.265-10.617-7.464-3.957-.93-8.34.191-12.985 1.378-.644.165-1.437.368-2.277.57 4.516-4.468 12.211-10.597 20.078-15.788a7.516 7.516 0 0 0 2.531-9.75c-25.421-48.867-31.394-94.106-31.453-94.555a7.522 7.522 0 0 0-8.402-6.52 7.52 7.52 0 0 0-6.524 8.403c.192 1.515 3.903 29.86 18.118 66.555-44.918-6.38-74.121-20.31-81.868-61.422-.609-3.227-.91-6.86-.894-10.805a7.527 7.527 0 0 0-7.5-7.547h-.023a7.524 7.524 0 0 0-7.524 7.496c-.016 4.89.375 9.48 1.156 13.64 1.59 8.43 3.899 15.946 6.97 22.688C17.82 406.52 1.846 413.871.624 425.707c-1.523 14.758 11.223 18.637 18.84 20.953 4 1.219 8.137 2.477 9.812 4.469 2.063 2.457 2.18 4.617 2.223 8.543.043 4.453.113 11.187 6.34 16.535 4.644 3.988 11.68 3.344 19.828 2.598 3.805-.348 10.855-.996 12.828-.09 1.059.902 2.223 3.223 3.254 5.281 2.652 5.277 6.984 13.906 17.805 13.906.672 0 1.37-.035 2.097-.105 7.926-.762 13.133-8.156 20.34-18.39 6.024-8.552 13.418-19.036 23.703-27.41a330.77 330.77 0 0 0 12.176 1.683 329.203 329.203 0 0 0 5.227 11.11c-2.801 2.01-6.344 4.655-9.825 7.534-9.191 7.598-18.109 16.531-14.562 25.2 4.426 10.82 17.242 7.542 24.125 5.785 1.894-.485 4.691-1.2 5.89-1.254.66.398 1.926 1.832 2.704 2.715 2.55 2.894 6.375 7.23 12.566 7.23.164 0 .332-.004.5-.012 5.043-.187 10.063-3.277 14.492-6.008 1.028-.632 2.434-1.5 3.43-2.039 1.258.5 3.14 1.364 4.512 1.989 7.554 3.453 14.082 6.437 19.39 3.55 1.551-.84 4.27-2.921 5.059-7.398 1.64-9.266-6.719-27.082-14.117-36.879l.789-7.973c5.101.079 10.386.118 15.816.118 5.43 0 10.715-.043 15.817-.118.253 2.563.52 5.208.789 7.954-3.48 4.558-6.918 10.511-9.676 16.824-2.598 5.933-5.473 14.234-4.442 20.074.793 4.473 3.508 6.555 5.06 7.398 5.312 2.887 11.835-.097 19.394-3.554 1.37-.625 3.253-1.485 4.511-1.985.992.536 2.399 1.403 3.43 2.04 4.426 2.726 9.445 5.82 14.488 6.007.172.004.336.008.5.008 6.192 0 10.016-4.336 12.567-7.23.789-.891 2.078-2.356 2.68-2.715 1.187.047 4.007.765 5.913 1.254 6.887 1.761 19.704 5.039 24.13-5.782 3.546-8.671-5.372-17.605-14.563-25.199-3.485-2.879-7.024-5.523-9.828-7.539 1.851-3.742 3.59-7.45 5.226-11.11a322.8 322.8 0 0 0 12.18-1.683c10.285 8.375 17.68 18.863 23.7 27.41 7.21 10.239 12.417 17.633 20.343 18.395.723.07 1.422.101 2.094.101 10.82 0 15.156-8.625 17.804-13.906 1.032-2.055 2.2-4.375 3.254-5.277 1.977-.91 9.024-.262 12.832.086 8.145.75 15.184 1.394 19.825-2.594 6.23-5.352 6.296-12.082 6.343-16.535.04-3.926.157-6.086 2.219-8.543 1.676-1.996 5.813-3.254 9.813-4.469 7.617-2.316 20.367-6.195 18.843-20.95zm-349.418 45.032c-3.28 4.656-7.742 10.996-9.797 12.11-1.378.105-1.992-.215-4.703-5.61-1.777-3.535-3.793-7.547-7.554-10.476-5.848-4.547-14.743-3.73-23.348-2.942-2.95.27-7.258.664-9.156.434-.446-.653-.563-1.684-.594-4.738-.047-4.528-.117-11.368-5.742-18.063-4.547-5.414-11.137-7.422-16.953-9.191-7.72-2.348-8.383-3.067-8.301-4.536 1.031-1.113 8.398-7.375 46.34-11.933 4.418 5.773 9.703 10.808 15.949 15.21 10.703 7.552 24.277 13.266 41.598 17.411-7.438 7.707-13.164 15.832-17.739 22.324zm326.196-38.472c-5.817 1.77-12.407 3.773-16.954 9.187-5.628 6.695-5.699 13.535-5.746 18.063-.027 3.054-.148 4.09-.593 4.738-1.899.23-6.203-.164-9.153-.434-8.601-.789-17.5-1.605-23.347 2.942-3.766 2.93-5.782 6.941-7.555 10.476-2.711 5.395-3.328 5.715-4.703 5.61-2.055-1.114-6.516-7.454-9.797-12.11-4.574-6.492-10.3-14.617-17.738-22.324 17.32-4.145 30.89-9.856 41.597-17.406 6.243-4.407 11.532-9.438 15.95-15.215 37.937 4.558 45.308 10.82 46.335 11.933.086 1.47-.578 2.192-8.296 4.54zM63.148 272.832a150.685 150.685 0 0 0 6.356 4.93c-6.813 15.375-14.992 36.039-19.809 56.027-.949 3.934 1.5 8.012 5.41 9.04 4.024 1.054 8.243-1.477 9.215-5.517 4.328-17.953 11.594-36.648 17.914-51.125 12.246 7.333 26.102 13.61 41.446 18.735 3.89 1.3 8.222-.863 9.52-4.75a7.522 7.522 0 0 0-4.75-9.52c-49.274-16.468-80.18-44.199-91.86-82.425-6.024-19.711-5.574-44.637 1.297-72.082 1.008-4.032-1.442-8.118-5.469-9.125-4.023-1.008-8.117 1.44-9.125 5.468-7.535 30.102-7.91 57.809-1.09 80.133 7.203 23.582 20.98 43.84 40.945 60.211zm-26.07-160.238a7.526 7.526 0 0 0 9.75-4.254c19.555-49.84 53.91-88.856 81.695-92.77 30.266-4.257 46.317 19.332 46.965 20.313a7.532 7.532 0 0 0 6.305 3.414h88.152a7.532 7.532 0 0 0 6.305-3.414c.16-.246 16.422-24.61 46.969-20.313 19.191 2.703 42.043 22.203 61.125 52.16 13.726 21.543 24.449 46.84 30.191 71.23 6.203 26.33 6.414 50.282.613 69.267-11.675 38.226-42.582 65.96-91.855 82.425-3.738 1.25-5.91 5.313-4.875 9.114 1.121 4.113 5.598 6.507 9.64 5.156 15.344-5.125 29.204-11.402 41.446-18.735 4.008 9.165 7.535 18.047 10.508 26.489 1.433 4.07 6.16 6.12 10.117 4.39 3.559-1.558 5.363-5.726 4.074-9.386-3.355-9.524-7.375-19.567-11.969-29.918a150.62 150.62 0 0 0 6.356-4.926c19.969-16.375 33.742-36.633 40.95-60.211 14.538-47.598-5.852-111.129-32.509-152.977-21.734-34.12-47.875-55.617-71.715-58.972-32.511-4.574-52.39 15.308-59.125 23.578h-80.644c-6.734-8.27-26.625-28.156-59.121-23.578C109 3.129 90.539 15 73.027 35.004 57.141 53.16 42.863 77.25 32.82 102.844a7.526 7.526 0 0 0 4.258 9.75zm0 0" data-original="#000000"/><path d="M191.363 76.11c-4.101-.633-7.949 2.175-8.586 6.28-.21 1.34-1.78 13.403 7.07 23.735 7.419 8.66 19.536 13.05 36.02 13.05 16.485 0 28.602-4.39 36.02-13.05 8.847-10.332 7.277-22.395 7.066-23.734-.637-4.106-4.488-6.914-8.586-6.282a7.528 7.528 0 0 0-6.281 8.59c.012.063.777 6.496-3.625 11.64-4.367 5.099-12.871 7.794-24.598 7.794-11.61 0-20.074-2.649-24.472-7.656-4.547-5.176-3.77-11.594-3.746-11.778a7.528 7.528 0 0 0-6.282-8.59zm-53.57-34.325c-8.309-3.894-18.566 1.07-23.36 11.297-4.792 10.223-2.038 21.285 6.266 25.176 9.504 4.453 19.387-2.832 23.352-11.297 3.96-8.445 3.195-20.742-6.258-25.176zm193.25 36.473c8.3-3.89 11.05-14.95 6.262-25.176-4.793-10.227-15.051-15.187-23.36-11.297-9.453 4.43-10.218 16.73-6.257 25.176 3.964 8.465 13.847 15.75 23.355 11.297zm0 0" data-original="#000000"/></svg>